Coordinates
version=1
nRows=22
nColumns=24
inDegrees=yes

Units are S.I. units (second, meters, Newtons, ...)
Angles are in degrees.

endheader
time	pelvis_tilt	pelvis_list	pelvis_rotation	pelvis_tx	pelvis_ty	pelvis_tz	hip_flexion_r	hip_adduction_r	hip_rotation_r	knee_angle_r	ankle_angle_r	subtalar_angle_r	mtp_angle_r	hip_flexion_l	hip_adduction_l	hip_rotation_l	knee_angle_l	ankle_angle_l	subtalar_angle_l	mtp_angle_l	lumbar_extension	lumbar_bending	lumbar_rotation
      1.31500000	     26.10951555	     -2.36378684	      1.49170527	     -0.59722815	      1.01779419	      0.02616315	    -40.86166237	      4.81548668	     -6.08765475	     -6.41892752	     15.06773672	     -3.49315811	     15.39530090	     -6.91392584	     -3.01570727	     -7.90468385	     -2.82746829	      0.48822755	      2.68629066	     28.05525954	    -42.34599266	      1.33700632	      3.71812124
      1.32000000	     26.16623959	     -2.39468055	      1.29928212	     -0.59163659	      1.01740450	      0.02581564	    -40.96939021	      4.63042040	     -5.97803010	     -6.96641408	     15.17525425	     -3.26199201	     15.25638906	     -6.94904685	     -2.96106808	     -7.95924278	     -3.30461193	      0.02396829	      2.51520068	     28.10789016	    -42.39488801	      1.22352513	      3.84737891
      1.32500000	     26.23886131	     -2.40766685	      1.13977465	     -0.58601818	      1.01706912	      0.02546987	    -41.08164159	      4.45442066	     -5.88254182	     -7.53356599	     15.21131193	     -3.13435057	     15.21969432	     -6.98435857	     -2.90533054	     -7.94135622	     -3.84228790	     -0.50713538	      2.42265295	     28.10789067	    -42.45687624	      1.10520203	      3.95505364
      1.33000000	     26.32404874	     -2.40685815	      0.95353047	     -0.58035816	      1.01678331	      0.02512314	    -41.18727779	      4.24097430	     -5.77223954	     -8.14031312	     15.24758755	     -2.95068870	     15.23195052	     -7.02172007	     -2.82770647	     -7.92763733	     -4.44025727	     -1.03088257	      2.14744896	     28.11519416	    -42.52793825	      0.96001149	      4.05903722
      1.33500000	     26.37565915	     -2.38640852	      0.78699580	     -0.57464970	      1.01652439	      0.02477632	    -41.24016358	      4.02556434	     -5.65775944	     -8.77529213	     15.22403334	     -2.84303759	     15.29041655	     -7.01040998	     -2.74191944	     -7.85800487	     -5.07607132	     -1.62284759	      1.95098532	     28.07765143	    -42.55905204	      0.80518660	      4.14368571
      1.34000000	     26.45513272	     -2.34024991	      0.66823527	     -0.56895137	      1.01631436	      0.02433261	    -41.29761392	      3.81144149	     -5.62285172	     -9.45377368	     15.16266897	     -2.68374669	     15.61612314	     -7.01330855	     -2.62517021	     -7.62803568	     -5.74190790	     -2.20627349	      1.46028893	     28.03518479	    -42.62060968	      0.65750288	      4.17290361
      1.34500000	     26.47820124	     -2.28646056	      0.53723020	     -0.56318876	      1.01610344	      0.02393956	    -41.27365112	      3.58556722	     -5.54420201	    -10.15646071	     14.89850203	     -2.67660584	     17.77630302	     -6.92869849	     -2.51195294	     -7.46998802	     -6.48303342	     -2.71560465	      1.13806545	     27.88235920	    -42.61694872	      0.49059819	      4.19780500
      1.35000000	     26.51998932	     -2.22637942	      0.39917576	     -0.55741232	      1.01596735	      0.02356231	    -41.24685497	      3.35447866	     -5.39796261	    -10.90538375	     14.76395867	     -2.68645009	     17.91360907	     -6.86878019	     -2.38862365	     -7.26576645	     -7.22851046	     -3.19521933	      0.68600572	     27.75117482	    -42.63155102	      0.30998036	      4.23839284
      1.35500000	     26.54581929	     -2.13820157	      0.31824503	     -0.55163058	      1.01584564	      0.02307536	    -41.17027163	      3.12914410	     -5.34786181	    -11.71249068	     14.59793602	     -2.62774833	     18.24954470	     -6.76780418	     -2.23696916	     -6.94201255	     -8.01429848	     -3.61526152	      0.15039579	     27.54382287	    -42.63041950	      0.14415705	      4.21699166
      1.36000000	     26.56269354	     -2.00604121	      0.25584520	     -0.54575800	      1.01575978	      0.02257133	    -41.06728105	      2.87377926	     -5.38047466	    -12.53307822	     14.08757037	     -2.69393309	     21.40133605	     -6.65064569	     -2.04467819	     -6.62900931	     -8.84049854	     -3.79167417	     -0.19909476	     26.18995143	    -42.61218682	     -0.05152239	      4.13923194
      1.36500000	     26.55458465	     -1.90505055	      0.20622795	     -0.53992582	      1.01569718	      0.02206085	    -40.88995156	      2.66178105	     -5.31445669	    -13.44585949	     13.82220407	     -2.75758529	     21.56592920	     -6.49374668	     -1.88184445	     -6.25397003	     -9.68327286	     -4.04907447	     -0.76636359	     25.99332533	    -42.57065670	     -0.21381088	      4.10050140
      1.37000000	     26.52094382	     -1.74527388	      0.16705397	     -0.53400889	      1.01564812	      0.02149783	    -40.65376812	      2.39502631	     -5.34148532	    -14.41950776	     13.50709695	     -2.71022040	     21.90780444	     -6.31441701	     -1.64715405	     -5.83188723	    -10.53417550	     -4.18983359	     -1.37906284	     25.73277759	    -42.49674916	     -0.41770910	      3.98587362
      1.37500000	     26.55091011	     -1.57481445	      0.19126820	     -0.52805777	      1.01569188	      0.02084276	    -40.47945991	      2.15168641	     -5.47891240	    -15.36962030	     12.73060693	     -2.88342092	     26.12328240	     -6.18038244	     -1.41022531	     -5.40378658	    -11.46196809	     -3.93491192	     -1.73678213	     23.26993589	    -42.48490513	     -0.59173829	      3.86408601
      1.38000000	     26.48937331	     -1.40549358	      0.20762106	     -0.52210316	      1.01568551	      0.02019587	    -40.13623070	      1.90821790	     -5.54246626	    -16.46888377	     12.30512439	     -2.91119775	     26.28050279	     -5.96085118	     -1.16273463	     -4.92924570	    -12.35109055	     -3.87027170	     -2.31163308	     23.06102599	    -42.38010119	     -0.76760121	      3.72292118
      1.38500000	     26.49932900	     -1.20253947	      0.25450466	     -0.51607928	      1.01578146	      0.01946707	    -39.85825326	      1.63315559	     -5.76011418	    -17.56039468	     11.50541959	     -3.00745019	     29.83933880	     -5.82427135	     -0.87461879	     -4.43634743	    -13.27192726	     -3.43250013	     -2.70535270	     20.39326224	    -42.34118703	     -0.95301480	      3.57563759
      1.39000000	     26.44044578	     -1.00785070	      0.34248479	     -0.51007792	      1.01581626	      0.01869439	    -39.44437171	      1.39322684	     -5.96170535	    -18.77766828	     10.92569072	     -3.01624769	     30.03366257	     -5.60473209	     -0.59363063	     -3.90649149	    -14.18657844	     -3.20060193	     -3.24812534	     20.15861556	    -42.23709509	     -1.10445398	      3.39376721
      1.39500000	     26.43464580	     -0.76657273	      0.38985476	     -0.50395466	      1.01595814	      0.01792210	    -39.06977140	      1.06481768	     -6.22258445	    -19.99605039	      9.98858622	     -3.13203771	     33.92504125	     -5.49488696	     -0.24678826	     -3.41920241	    -15.06034149	     -2.60173716	     -3.61881565	     17.30492013	    -42.17447452	     -1.31815738	      3.20383527
      1.40000000	     26.36409539	     -0.55835764	      0.51518857	     -0.49789122	      1.01602620	      0.01705533	    -38.56532978	      0.80922843	     -6.50849543	    -21.32936986	      9.23403688	     -3.12729649	     34.14708767	     -5.29695664	      0.06019510	     -2.86403016	    -15.93842381	     -2.24836642	     -4.10146907	     17.04802099	    -42.05231542	     -1.45337283	      3.00106103
      1.40500000	     26.36974463	     -0.26473581	      0.58651426	     -0.49167380	      1.01621808	      0.01619379	    -38.12977974	      0.41520429	     -6.88807751	    -22.66326211	      8.15434220	     -3.23732803	     38.18189951	     -5.26029141	      0.47429692	     -2.39696009	    -16.72592092	     -1.54143342	     -4.41150414	     14.18700169	    -41.99413859	     -1.69039726	      2.74785768
      1.41000000	     26.26581924	     -0.07540709	      0.69302893	     -0.48558983	      1.01630068	      0.01530810	    -37.49022619	      0.13781938	     -7.14552854	    -24.13259016	      7.21488043	     -3.28810914	     38.40427530	     -5.09018755	      0.77632340	     -1.88933709	    -17.51016406	     -1.12317246	     -4.86312703	     13.93310214	    -41.83377985	     -1.81422584	      2.59430437
      1.41500000	     26.27261649	      0.22955413	      0.76889901	     -0.47932817	      1.01652380	      0.01438890	    -36.97812059	     -0.30125163	     -7.57375170	    -25.57158978	      5.97711505	     -3.38643267	     42.47372861	     -5.13012605	      1.21002484	     -1.45892522	    -18.17943240	     -0.37112906	     -5.11284457	     11.19416775	    -41.77294045	     -2.05092898	      2.33493637
      1.42000000	     26.17876181	      0.43855557	      0.85539901	     -0.47321915	      1.01664294	      0.01350979	    -36.27392860	     -0.63341165	     -7.83147559	    -27.13126511	      4.87249468	     -3.56182464	     42.65653317	     -5.05348261	      1.53956099	     -1.02066852	    -18.83463588	      0.09502315	     -5.51554555	     10.97358004	    -41.61899397	     -2.20036010	      2.18411154
